<svg id="Layer_1" data-name="Layer 1" xmlns="http://www.w3.org/2000/svg" viewBox="0 0 618.02 1020.77"><defs><style>.cls-1{fill:#192351;}.cls-2{fill:#0a0c42;}.cls-3{fill:#060b40;}.cls-4{fill:#0d1045;}.cls-5{fill:#0e1145;}.cls-6{fill:#07083d;}.cls-7{fill:#08093d;}.cls-8{fill:#08093e;}.cls-9{fill:#05063c;}.cls-10{fill:#09093e;}.cls-11{fill:#0c0940;}.cls-12{fill:#07063e;}.cls-13{fill:#0c1549;}.cls-14{fill:#6a5070;}.cls-15{fill:#664b6b;}.cls-16{fill:#694f6e;}.cls-17{fill:#755d73;}.cls-18{fill:#816f83;}.cls-19{fill:#897487;}.cls-20{fill:#655b6e;}.cls-21{fill:#4e4768;}.cls-22{fill:#0b1649;}.cls-23{fill:#0d1545;}.cls-24{fill:#0a103f;}.cls-25{fill:#876a81;}.cls-26{fill:#4a3a5a;}.cls-27{fill:#4d3c5f;}.cls-28{fill:#0c1141;}.cls-29{fill:#926979;}.cls-30{fill:#946f7c;}.cls-31{fill:#9e707a;}.cls-32{fill:#9e6b78;}.cls-33{fill:#8d5f73;}.cls-34{fill:#7f556d;}.cls-35{fill:#a46b76;}.cls-36{fill:#ad777a;}.cls-37{fill:#b17d84;}.cls-38{fill:#b38082;}.cls-39{fill:#bb8685;}.cls-40{fill:#b37e7b;}.cls-41{fill:#ab8283;}.cls-42{fill:#bd8583;}.cls-43{fill:#785d70;}.cls-44{fill:#493c61;}.cls-45{fill:#b88080;}.cls-46{fill:#e8c9a9;}.cls-47{fill:#e9d2b4;}.cls-48{fill:#8b6973;}.cls-49{fill:#6e5363;}.cls-50{fill:#7d5e6e;}.cls-51{fill:#7d6271;}.cls-52{fill:#59506c;}.cls-53{fill:#262c54;}.cls-54{fill:#09073b;}.cls-55{fill:#7f596e;}.cls-56{fill:#d1af9e;}.cls-57{fill:#7d6772;}.cls-58{fill:#976a70;}.cls-59{fill:#a5707a;}.cls-60{fill:#c99088;}.cls-61{fill:#c48681;}.cls-62{fill:#a86a71;}.cls-63{fill:#b37077;}.cls-64{fill:#b8767b;}.cls-65{fill:#c08281;}.cls-66{fill:#c7898a;}.cls-67{fill:#914a5f;}.cls-68{fill:#b06e75;}.cls-69{fill:#e6b4a1;}.cls-70{fill:#d09189;}.cls-71{fill:#af6a66;}.cls-72{fill:#cf8e8b;}.cls-73{fill:#d49a8e;}.cls-74{fill:#ac5f71;}.cls-75{fill:#9c4967;}.cls-76{fill:#ca8589;}.cls-77{fill:#bb797e;}.cls-78{fill:#945361;}.cls-79{fill:#e0ab94;}.cls-80{fill:#ab6a74;}.cls-81{fill:#daa596;}.cls-82{fill:#d6a093;}.cls-83{fill:#cc908a;}.cls-84{fill:#b16f76;}.cls-85{fill:#e4ac9b;}.cls-86{fill:#c38881;}.cls-87{fill:#945862;}.cls-88{fill:#9d5f69;}.cls-89{fill:#d9a394;}.cls-90{fill:#c98e88;}.cls-91{fill:#daa895;}.cls-92{fill:#d1928b;}.cls-93{fill:#b97378;}.cls-94{fill:#9f5b6d;}.cls-95{fill:#dea193;}.cls-96{fill:#c98a84;}.cls-97{fill:#af6e75;}.cls-98{fill:#330e46;}.cls-99{fill:#975a6a;}.cls-100{fill:#d6a092;}.cls-101{fill:#b97778;}.cls-102{fill:#8c4a61;}.cls-103{fill:#a26570;}.cls-104{fill:#8b4661;}.cls-105{fill:#8f4d69;}.cls-106{fill:#914c66;}.cls-107{fill:#a96175;}.cls-108{fill:#934965;}.cls-109{fill:#dda194;}.cls-110{fill:#c68086;}.cls-111{fill:#da8f8d;}.cls-112{fill:#b2797c;}.cls-113{fill:#c38283;}.cls-114{fill:#d7a094;}.cls-115{fill:#d7a193;}.cls-116{fill:#c38687;}.cls-117{fill:#d9a294;}.cls-118{fill:#d19b8d;}.cls-119{fill:#915160;}.cls-120{fill:#8b4863;}.cls-121{fill:#c48786;}.cls-122{fill:#c2837d;}.cls-123{fill:#9e5d69;}.cls-124{fill:#ab6f73;}.cls-125{fill:#603654;}.cls-126{fill:#8b5361;}.cls-127{fill:#7a425f;}.cls-128{fill:#d7bfaf;}.cls-129{fill:#ccb9a4;}.cls-130{fill:#f9e3b3;}.cls-131{fill:#c8abba;}.cls-132{fill:#ffe4d3;}.cls-133{fill:#111342;}.cls-134{fill:#332855;}.cls-135{fill:#060636;}.cls-136{fill:#05053c;}.cls-137{fill:#0d0b40;}.cls-138{fill:#513c5e;}.cls-139{fill:#0c0c3e;}.cls-140{fill:#60415e;}.cls-141{fill:#0c0c3d;}.cls-142{fill:#c6b3a5;}.cls-143{fill:#eddac0;}.cls-144{fill:#a08a83;}.cls-145{fill:#f7e2bc;}.cls-146{fill:#f0c6e4;}.cls-147{fill:#eddbc1;}.cls-148{fill:#b7a090;}.cls-149{fill:#3d2a4a;}.cls-150{fill:#d3b9b2;}.cls-151{fill:#ab8f88;}.cls-152{fill:#b4a1a5;}.cls-153{fill:#c7b0ac;}.cls-154{fill:#7b6c86;}.cls-155{fill:#be9e89;}.cls-156{fill:#c3a69d;}.cls-157{fill:#d7baad;}.cls-158{fill:#eed0c2;}.cls-159{fill:#fcd4b3;}.cls-160{fill:#e9c3b6;}.cls-161{fill:#efc3bd;}.cls-162{fill:#dab7b8;}.cls-163{fill:#dfb5b6;}.cls-164{fill:#ba9e99;}.cls-165{fill:#c6bab4;}.cls-166{fill:#6a657a;}.cls-167{fill:#b79b9c;}.cls-168{fill:#655a6e;}.cls-169{fill:#9e98a8;}.cls-170{fill:#928791;}.cls-171{fill:#999cab;}.cls-172{fill:#ae9d9e;}.cls-173{fill:#928289;}.cls-174{fill:#96838f;}.cls-175{fill:#b29ba5;}.cls-176{fill:#847688;}.cls-177{fill:#b69d8b;}.cls-178{fill:#b59ca6;}.cls-179{fill:#f6d4be;}.cls-180{fill:#bdaaa4;}.cls-181{fill:#8f8891;}.cls-182{fill:#5a3959;}.cls-183{fill:#543d5b;}.cls-184{fill:#08083c;}.cls-185{fill:#030339;}.cls-186{fill:#06043a;}.cls-187{fill:#906776;}.cls-188{fill:#744b67;}.cls-189{fill:#4a3b5c;}.cls-190{fill:#0c0a3e;}.cls-191{fill:#0b0a3b;}.cls-192{fill:#0f0b3f;}.cls-193{fill:#291c49;}.cls-194{fill:#c6b8af;}.cls-195{fill:#cba5ba;}.cls-196{fill:#f7dabb;}.cls-197{fill:#d5c5bc;}.cls-198{fill:#e7dad6;}.cls-199{fill:#e3c7cd;}.cls-200{fill:#c2acbf;}.cls-201{fill:#8d7f7f;}.cls-202{fill:#9c96b0;}.cls-203{fill:#e1beb4;}.cls-204{fill:#b3a198;}.cls-205{fill:#a68c98;}.cls-206{fill:#c3aeae;}.cls-207{fill:#130a41;}.cls-208{fill:#0a083c;}.cls-209{fill:#180f3a;}.cls-210{fill:#c3a393;}.cls-211{fill:#d5b8a4;}.cls-212{fill:#c7af9b;}.cls-213{fill:#e2c9b2;}.cls-214{fill:#e8c6b5;}.cls-215{fill:#eaccb6;}.cls-216{fill:#e0bba3;}.cls-217{fill:#8c6277;}.cls-218{fill:#9f918b;}.cls-219{fill:#d4b89e;}.cls-220{fill:#edc0ae;}.cls-221{fill:#625770;}.cls-222{fill:#8e7e9b;}.cls-223{fill:#0f0a39;}.cls-224{fill:#07053a;}.cls-225{fill:#09083b;}.cls-226{fill:#0c0a3d;}.cls-227{fill:#d6b3a1;}.cls-228{fill:#e4c6af;}.cls-229{fill:#b39590;}.cls-230{fill:#462c48;}.cls-231{fill:#1f1745;}.cls-232{fill:#523e66;}.cls-233{fill:#171646;}.cls-234{fill:#6c4160;}.cls-235{fill:#553959;}.cls-236{fill:#4b2c54;}.cls-237{fill:#6b4361;}.cls-238{fill:#875971;}.cls-239{fill:#030237;}.cls-240{fill:#08073d;}.cls-241{fill:#010636;}.cls-242{fill:#966274;}.cls-243{fill:#0c073c;}.cls-244{fill:#9b6880;}.cls-245{fill:#9d6077;}.cls-246{fill:#b77583;}.cls-247{fill:#b6717e;}.cls-248{fill:#422352;}.cls-249{fill:#492550;}.cls-250{fill:#bc7a88;}.cls-251{fill:#8e637c;}.cls-252{fill:#a07587;}.cls-253{fill:#a47482;}.cls-254{fill:#a97386;}.cls-255{fill:#865c74;}.cls-256{fill:#7e596e;}.cls-257{fill:#51335a;}.cls-258{fill:#674561;}.cls-259{fill:#6a4969;}.cls-260{fill:#33194d;}.cls-261{fill:#0f063a;}.cls-262{fill:#04033a;}.cls-263{fill:#845170;}.cls-264{fill:#4f385c;}.cls-265{fill:#361c49;}.cls-266{fill:#653d62;}.cls-267{fill:#be808c;}.cls-268{fill:#be8186;}.cls-269{fill:#af727d;}.cls-270{fill:#c68383;}.cls-271{fill:#06023a;}.cls-272{fill:#0c0839;}.cls-273{fill:#6c4263;}.cls-274{fill:#000238;}.cls-275{fill:#d48e97;}.cls-276{fill:#c27782;}.cls-277{fill:#c58083;}.cls-278{fill:#56345b;}.cls-279{fill:#432151;}.cls-280{fill:#160846;}.cls-281{fill:#241345;}.cls-282{fill:#1e0b3a;}.cls-283{fill:#271043;}.cls-284{fill:#27103d;}.cls-285{fill:#e19f9a;}.cls-286{fill:#c88084;}.cls-287{fill:#040137;}.cls-288{fill:#000138;}.cls-289{fill:#050539;}.cls-290{fill:#793f62;}.cls-291{fill:#ca7e85;}.cls-292{fill:#310d42;}.cls-293{fill:#834d69;}.cls-294{fill:#693d5d;}.cls-295{fill:#6f3e59;}.cls-296{fill:#49214c;}.cls-297{fill:#7c4a62;}.cls-298{fill:#573158;}.cls-299{fill:#331b49;}.cls-300{fill:#422d59;}.cls-301{fill:#4b3658;}.cls-302{fill:#3e2b53;}.cls-303{fill:#1b1242;}.cls-304{fill:#371d50;}.cls-305{fill:#311a4c;}.cls-306{fill:#171241;}.cls-307{fill:#b39b9f;}.cls-308{fill:#a0818d;}.cls-309{fill:#967b82;}.cls-310{fill:#a399a2;}.cls-311{fill:#a495a5;}.cls-312{fill:#baa099;}.cls-313{fill:#7b7b8b;}.cls-314{fill:#a09db0;}.cls-315{fill:#999eb4;}.cls-316{fill:#78849c;}.cls-317{fill:#5d6475;}.cls-318{fill:#54517f;}.cls-319{fill:#464372;}.cls-320{fill:#4e4779;}.cls-321{fill:#474378;}.cls-322{fill:#423f73;}.cls-323{fill:#33356a;}.cls-324{fill:#2f376c;}.cls-325{fill:#535587;}.cls-326{fill:#5c729b;}.cls-327{fill:#8583b9;}.cls-328{fill:#555e93;}.cls-329{fill:#8a84b3;}.cls-330{fill:#8a6f9f;}.cls-331{fill:#d4aac7;}.cls-332{fill:#e7c5cb;}.cls-333{fill:#496792;}.cls-334{fill:#474f83;}.cls-335{fill:#3e4175;}.cls-336{fill:#313e71;}.cls-337{fill:#263368;}.cls-338{fill:#303d71;}.cls-339{fill:#535b87;}.cls-340{fill:#1f3165;}.cls-341{fill:#243768;}.cls-342{fill:#233468;}.cls-343{fill:#394876;}.cls-344{fill:#314c7d;}.cls-345{fill:#406395;}.cls-346{fill:#9baeca;}.cls-347{fill:#41568e;}.cls-348{fill:#6776a1;}.cls-349{fill:#8b81b0;}.cls-350{fill:#8888b8;}.cls-351{fill:#7e7aa9;}.cls-352{fill:#5b6192;}.cls-353{fill:#273975;}.cls-354{fill:#7e395c;}.cls-355{fill:#6d3f60;}.cls-356{fill:#7d3d5f;}.cls-357{fill:#8e4e6b;}.cls-358{fill:#704e6d;}.cls-359{fill:#8b6779;}.cls-360{fill:#aa8991;}.cls-361{fill:#a08089;}.cls-362{fill:#6c4d6b;}.cls-363{fill:#66476a;}.cls-364{fill:#9a8184;}.cls-365{fill:#101041;}.cls-366{fill:#45446e;}.cls-367{fill:#0f0e41;}.cls-368{fill:#111546;}.cls-369{fill:#131747;}.cls-370{fill:#150a40;}.cls-371{fill:#442e59;}.cls-372{fill:#694162;}.cls-373{fill:#704f71;}.cls-374{fill:#371e4c;}.cls-375{fill:#513d5f;}.cls-376{fill:#30214d;}.cls-377{fill:#201d4e;}.cls-378{fill:#5b375d;}.cls-379{fill:#442b56;}.cls-380{fill:#664360;}.cls-381{fill:#322150;}.cls-382{fill:#3d2252;}.cls-383{fill:#403b5e;}.cls-384{fill:#37184e;}.cls-385{fill:#663a5c;}.cls-386{fill:#35144a;}.cls-387{fill:#391a4f;}.cls-388{fill:#3b1b4c;}.cls-389{fill:#804963;}.cls-390{fill:#8b5b73;}.cls-391{fill:#88526a;}.cls-392{fill:#4f3a62;}.cls-393{fill:#4c2748;}.cls-394{fill:#1e0f3f;}.cls-395{fill:#2d1042;}.cls-396{fill:#461d4b;}.cls-397{fill:#774468;}.cls-398{fill:#a85879;}.cls-399{fill:#b75878;}.cls-400{fill:#953e6a;}.cls-401{fill:#5d2057;}.cls-402{fill:#4b275c;}.cls-403{fill:#6f4c71;}.cls-404{fill:#271b4b;}.cls-405{fill:#0c0c40;}.cls-406{fill:#8e3d6a;}.cls-407{fill:#765979;}.cls-408{fill:#463155;}.cls-409{fill:#553a63;}.cls-410{fill:#6f5a73;}.cls-411{fill:#955173;}.cls-412{fill:#753d62;}.cls-413{fill:#703257;}.cls-414{fill:#b2617c;}.cls-415{fill:#713a5f;}.cls-416{fill:#945b6f;}.cls-417{fill:#ad7079;}.cls-418{fill:#6f4b64;}.cls-419{fill:#3d234e;}.cls-420{fill:#7d5d72;}.cls-421{fill:#513159;}.cls-422{fill:#a3717b;}.cls-423{fill:#c1a29a;}.cls-424{fill:#b19587;}.cls-425{fill:#e5c5b1;}.cls-426{fill:#ba8583;}.cls-427{fill:#d09e90;}.cls-428{fill:#d8a893;}.cls-429{fill:#e4b2a2;}.cls-430{fill:#4b2d51;}.cls-431{fill:#906369;}.cls-432{fill:#d79c8f;}.cls-433{fill:#e0a799;}.cls-434{fill:#bd7e7b;}.cls-435{fill:#cd928d;}.cls-436{fill:#b37379;}.cls-437{fill:#8c516b;}.cls-438{fill:#a86e74;}.cls-439{fill:#713f5f;}.cls-440{fill:#995e6f;}.cls-441{fill:#312851;}.cls-442{fill:#4c3d64;}.cls-443{fill:#3c2f57;}.cls-444{fill:#af7479;}.cls-445{fill:#a2676c;}.cls-446{fill:#6f475f;}.cls-447{fill:#9f676f;}.cls-448{fill:#a97879;}.cls-449{fill:#a16770;}.cls-450{fill:#7d455c;}.cls-451{fill:#a86d72;}.cls-452{fill:#38224d;}.cls-453{fill:#0f0d40;}.cls-454{fill:#866a7c;}.cls-455{fill:#71546b;}.cls-456{fill:#6b4d68;}.cls-457{fill:#353358;}.cls-458{fill:#352c58;}.cls-459{fill:#492e58;}.cls-460{fill:#2e204c;}.cls-461{fill:#2b1642;}.cls-462{fill:#90596a;}.cls-463{fill:#443155;}.cls-464{fill:#6b415b;}.cls-465{fill:#65425a;}.cls-466{fill:#915a68;}.cls-467{fill:#daa390;}.cls-468{fill:#ce9487;}.cls-469{fill:#d59d8a;}.cls-470{fill:#d59d8b;}.cls-471{fill:#b88584;}.cls-472{fill:#a96b75;}.cls-473{fill:#ba7f7f;}.cls-474{fill:#bc7c7d;}.cls-475{fill:#77647b;}.cls-476{fill:#9f9aa8;}.cls-477{fill:#595d7b;}.cls-478{fill:#4a5574;}.cls-479{fill:#b77976;}.cls-480{fill:#b77872;}.cls-481{fill:#cd8f85;}.cls-482{fill:#a76e75;}.cls-483{fill:#7b5265;}.cls-484{fill:#845867;}.cls-485{fill:#a46e75;}.cls-486{fill:#382148;}.cls-487{fill:#190b3c;}.cls-488{fill:#0d0a3c;}.cls-489{fill:#190c3d;}.cls-490{fill:#634c62;}.cls-491{fill:#936069;}.cls-492{fill:#b4807f;}.cls-493{fill:#8d6772;}.cls-494{fill:#875a68;}.cls-495{fill:#7a5666;}.cls-496{fill:#5f425d;}.cls-497{fill:#785669;}.cls-498{fill:#705067;}.cls-499{fill:#0b0a38;}.cls-500{fill:#061445;}.cls-501{fill:#020139;}.cls-502{fill:#8c5e66;}.cls-503{fill:#b37776;}.cls-504{fill:#25345f;}.cls-505{fill:#354065;}.cls-506{fill:#794e63;}.cls-507{fill:#545a7d;}.cls-508{fill:#7e5264;}.cls-509{fill:#8a596c;}.cls-510{fill:#956370;}.cls-511{fill:#8f6975;}.cls-512{fill:#7d556c;}.cls-513{fill:#9b7b86;}.cls-514{fill:#755a73;}.cls-515{fill:#9a7883;}.cls-516{fill:#987b89;}.cls-517{fill:#040c43;}.cls-518{fill:#06053e;}.cls-519{fill:#08063e;}.cls-520{fill:#090c43;}.cls-521{fill:#0b0c3e;}.cls-522{fill:#070538;}.cls-523{fill:#3d1b51;}.cls-524{fill:#ffeacb;}.cls-525{fill:#2d1a44;}.cls-526{fill:#40315b;}.cls-527{fill:#5c4561;}.cls-528{fill:#583457;}.cls-529{fill:#794967;}.cls-530{fill:#01013a;}.cls-531{fill:#0d093c;}.cls-532{fill:#d4a093;}.cls-533{fill:#cd8c8d;}.cls-534{fill:#d59c8d;}.cls-535{fill:#c28882;}.cls-536{fill:#5d2d52;}.cls-537{fill:#a86f72;}.cls-538{fill:#ba7675;}.cls-539{fill:#ca8a80;}.cls-540{fill:#757c93;}.cls-541{fill:#b4787b;}.cls-542{fill:#936c73;}.cls-543{fill:#aa7e79;}.cls-544{fill:#9a656a;}.cls-545{fill:#7a5c6c;}.cls-546{fill:#c18987;}.cls-547{fill:#5c4869;}.cls-548{fill:#36325a;}.cls-549{fill:#b0797b;}.cls-550{fill:#9f6a78;}.cls-551{fill:#aa727a;}.cls-552{fill:#7f506a;}.cls-553{fill:#604466;}.cls-554{fill:#422950;}.cls-555{fill:#8b6172;}.cls-556{fill:#3d3158;}.cls-557{fill:#0d1648;}.cls-558{fill:#756679;}.cls-559{fill:#926e7f;}.cls-560{fill:#795d77;}.cls-561{fill:#7e586e;}.cls-562{fill:#644b67;}.cls-563{fill:#b57978;}.cls-564{fill:#9c6e70;}.cls-565{fill:#8b636e;}</style></defs><title>Artboard 1</title><path class="cls-1" d="M71.61,127.69c-.22.64-24.52,81.87-24.52,81.87L156,93.37Z"/><polygon class="cls-2" points="117.65 70.35 71.61 127.69 156.03 93.37 117.65 70.35"/><polygon class="cls-3" points="117.65 70.35 156.03 42.94 156.03 93.37 117.65 70.35"/><polygon class="cls-4" points="221.42 12.05 156.03 42.94 156.03 93.37 221.42 12.05"/><polygon class="cls-5" points="240.37 49.28 156.03 93.37 221.42 12.05 240.37 49.28"/><polygon class="cls-6" points="284.51 0 240.37 49.28 221.42 12.05 284.51 0"/><polygon class="cls-7" points="313.08 36.56 240.37 49.28 284.51 0 313.08 36.56"/><polygon class="cls-8" points="342.73 2.3 313.08 36.56 284.51 0 342.73 2.3"/><polygon class="cls-9" points="397.43 20.17 342.73 2.3 313.08 36.56 397.43 20.17"/><polygon class="cls-10" points="397.43 39.81 397.43 20.17 313.08 36.56 397.43 39.81"/><polygon class="cls-11" points="435.07 40.62 397.43 39.81 397.43 20.17 435.07 40.62"/><polygon class="cls-12" points="442.1 56.77 435.07 40.62 397.43 39.81 442.1 56.77"/><polygon class="cls-13" points="463.18 72.8 435.07 40.62 442.1 56.77 463.18 72.8"/><polygon class="cls-14" points="489.67 103.85 463.18 72.8 421.51 99.8 489.67 103.85"/><polygon class="cls-15" points="421.51 99.8 442.1 56.77 463.18 72.8 421.51 99.8"/><polygon class="cls-16" points="465 156.01 421.51 99.8 515.99 148.12 465 156.01"/><polygon class="cls-17" points="515.99 148.12 489.67 103.85 421.51 99.8 515.99 148.12"/><polygon class="cls-18" points="503.57 183.77 515.99 148.12 524.9 173.1 503.57 183.77"/><polygon class="cls-19" points="530.04 191.14 524.9 173.1 503.57 183.77 530.04 191.14"/><polygon class="cls-20" points="533.59 211.62 530.04 191.14 521.98 209.32 533.59 211.62"/><polygon class="cls-21" points="521.98 214.79 521.98 209.32 533.59 211.62 521.98 214.79"/><polygon class="cls-22" points="516.8 231.31 533.59 211.62 546.52 234.1 516.8 231.31"/><polygon class="cls-23" points="551.4 247.93 546.52 234.1 516.8 231.31 551.4 247.93"/><polygon class="cls-24" points="531.66 249.21 516.8 231.31 551.4 247.93 531.66 249.21"/><polygon class="cls-25" points="488.91 208.42 503.57 183.77 521.98 209.32 488.91 208.42"/><polygon class="cls-26" points="521.98 214.79 488.91 208.42 521.98 209.32 521.98 214.79"/><path class="cls-27" d="M453.56,211.61c.52-.1,35.35-3.19,35.35-3.19L522,214.79Z"/><polygon class="cls-28" points="442.86 233.18 521.98 214.79 516.8 231.31 442.86 233.18"/><path class="cls-29" d="M385.19,149.26c0,.63,79.81,6.75,79.81,6.75l-11.44,55.6Z"/><polygon class="cls-30" points="503.57 183.77 465 156.01 453.56 211.61 503.57 183.77"/><polygon class="cls-31" points="298.02 201.07 385.19 149.26 382.49 207.52 298.02 201.07"/><path class="cls-32" d="M344.21,105.61c0,.82,41,43.65,41,43.65L298,201.07Z"/><path class="cls-33" d="M421.51,99.8s-76.76,4.71-77.3,5.81,41,43.65,41,43.65Z"/><polygon class="cls-34" points="397.43 39.81 344.21 105.61 421.51 99.8 397.43 39.81"/><polygon class="cls-35" points="265.47 123.96 313.08 36.56 344.21 105.61 265.47 123.96"/><polygon class="cls-36" points="252.96 198.28 265.47 123.96 298.02 201.07 252.96 198.28"/><polygon class="cls-37" points="240.37 49.28 265.47 123.96 156.03 93.37 240.37 49.28"/><polygon class="cls-38" points="149.54 143.77 156.03 93.37 265.47 123.96 149.54 143.77"/><polygon class="cls-39" points="166.6 181.46 149.54 143.77 265.47 123.96 166.6 181.46"/><polygon class="cls-40" points="215.55 227.78 252.96 198.28 166.6 181.46 215.55 227.78"/><polygon class="cls-41" points="125.13 244.75 149.54 143.77 166.6 181.46 125.13 244.75"/><polygon class="cls-42" points="215.55 227.78 125.13 244.75 166.6 181.46 215.55 227.78"/><polygon class="cls-43" points="225.89 260.63 215.55 227.78 197.83 261.78 225.89 260.63"/><polygon class="cls-44" points="246.83 239 252.96 198.28 225.89 260.63 246.83 239"/><polygon class="cls-45" points="195 266.3 125.13 244.75 197.83 261.78 195 266.3"/><polygon class="cls-46" points="197.1 273.87 195 266.3 225.89 260.63 197.1 273.87"/><polygon class="cls-47" points="197.83 261.78 225.89 260.63 195 266.3 197.83 261.78"/><polygon class="cls-42" points="129.34 286.8 195 266.3 125.13 244.75 129.34 286.8"/><polygon class="cls-48" points="94.78 300.43 129.34 286.8 125.13 244.75 94.78 300.43"/><polygon class="cls-49" points="82.01 301.62 125.13 244.75 94.78 300.43 82.01 301.62"/><polygon class="cls-50" points="51.59 311.1 82.01 301.62 125.13 244.75 51.59 311.1"/><path class="cls-51" d="M46.45,251.71c.4,0,78.68-7,78.68-7L51.59,311.1Z"/><polygon class="cls-52" points="47.09 209.56 46.45 251.71 149.54 143.77 47.09 209.56"/><polygon class="cls-53" points="61.22 312.15 82.01 301.62 51.59 311.1 61.22 312.15"/><polygon class="cls-54" points="92.44 311.1 82.01 301.62 63.71 320.06 92.44 311.1"/><polygon class="cls-55" points="51.59 311.1 63.71 320.06 61.22 312.15 51.59 311.1"/><polygon class="cls-56" points="94.78 300.43 92.44 311.1 82.01 301.62 94.78 300.43"/><polygon class="cls-57" points="97.45 306.88 92.44 311.1 94.78 300.43 97.45 306.88"/><polygon class="cls-58" points="134.29 393.06 97.45 306.88 92.44 311.1 134.29 393.06"/><polygon class="cls-59" points="118.27 398.89 92.44 311.1 134.29 393.06 118.27 398.89"/><polygon class="cls-60" points="91.39 369.87 92.44 311.1 118.27 398.89 91.39 369.87"/><polygon class="cls-61" points="71.01 364.12 91.39 369.87 63.71 320.06 71.01 364.12"/><polygon class="cls-62" points="58.12 346.3 63.71 320.06 71.01 364.12 58.12 346.3"/><polygon class="cls-63" points="41.62 326.31 58.12 346.3 63.71 320.06 41.62 326.31"/><polygon class="cls-64" points="51.59 311.1 41.62 326.31 63.71 320.06 51.59 311.1"/><polygon class="cls-65" points="33.72 311.54 51.59 311.1 41.62 326.31 33.72 311.54"/><polygon class="cls-66" points="16.03 317.75 33.72 311.54 41.62 326.31 16.03 317.75"/><path class="cls-67" d="M7.84,323.21c.28,0,8.19-5.46,8.19-5.46l-4.69,64.88Z"/><polygon class="cls-68" points="30.74 397.76 11.34 382.63 16.03 317.75 30.74 397.76"/><polygon class="cls-69" points="49.28 374.2 41.62 326.31 30.74 397.76 49.28 374.2"/><polygon class="cls-70" points="58.12 346.3 49.28 374.2 71.01 364.12 58.12 346.3"/><polygon class="cls-71" points="0 357.76 7.84 323.21 11.34 382.63 0 357.76"/><polygon class="cls-72" points="0 376.7 0 357.76 11.34 382.63 0 376.7"/><polygon class="cls-73" points="13.82 416.86 0 376.7 32.28 433.89 13.82 416.86"/><polygon class="cls-74" points="30.74 397.76 11.34 382.63 32.28 433.89 30.74 397.76"/><polygon class="cls-75" points="0 376.7 11.34 382.63 32.28 433.89 0 376.7"/><polygon class="cls-76" points="29.76 446.06 32.28 433.89 13.82 416.86 29.76 446.06"/><polygon class="cls-77" points="49.34 452.06 29.76 446.06 55.6 481.93 49.34 452.06"/><polygon class="cls-78" points="32.28 433.89 49.34 452.06 29.76 446.06 32.28 433.89"/><polygon class="cls-79" points="49.34 437.26 49.34 452.06 32.28 433.89 49.34 437.26"/><polygon class="cls-80" points="73.56 461.13 55.6 481.93 49.34 452.06 73.56 461.13"/><polygon class="cls-81" points="63.56 444.13 49.34 437.26 49.34 452.06 63.56 444.13"/><polygon class="cls-82" points="80.01 451.13 73.56 461.13 63.56 444.13 80.01 451.13"/><polygon class="cls-83" points="86.34 503.46 73.56 461.13 55.6 481.93 86.34 503.46"/><polygon class="cls-84" points="105.79 502.9 86.34 503.46 115.12 482.29 105.79 502.9"/><polygon class="cls-85" points="90.67 473.9 86.34 503.46 115.12 482.29 90.67 473.9"/><polygon class="cls-86" points="73.56 461.13 90.67 473.9 86.34 503.46 73.56 461.13"/><polygon class="cls-87" points="107.23 461.13 90.67 473.9 92.45 461.13 107.23 461.13"/><polygon class="cls-88" points="73.56 461.13 92.45 461.13 90.67 473.9 73.56 461.13"/><polygon class="cls-89" points="80.01 451.13 92.45 461.13 73.56 461.13 80.01 451.13"/><polygon class="cls-90" points="120.36 470.19 107.23 461.13 90.67 473.9 120.36 470.19"/><polygon class="cls-91" points="115.12 482.29 120.36 470.19 90.67 473.9 115.12 482.29"/><polygon class="cls-92" points="30.74 397.76 49.34 437.26 32.28 433.89 30.74 397.76"/><polygon class="cls-93" points="43.34 400.36 30.74 397.76 49.34 437.26 43.34 400.36"/><polygon class="cls-94" points="55.07 408.84 43.34 400.36 49.34 437.26 55.07 408.84"/><polygon class="cls-95" points="30.74 397.76 49.28 374.2 43.34 400.36 30.74 397.76"/><polygon class="cls-96" points="65.14 380.7 43.34 400.36 49.28 374.2 65.14 380.7"/><polygon class="cls-97" points="71.01 364.12 65.14 380.7 49.28 374.2 71.01 364.12"/><polygon class="cls-98" points="83.69 385.37 71.01 364.12 65.14 380.7 83.69 385.37"/><polygon class="cls-99" points="90.32 386.36 91.39 369.87 83.69 385.37 90.32 386.36"/><polygon class="cls-100" points="118.27 398.89 90.32 386.36 91.39 369.87 118.27 398.89"/><polygon class="cls-101" points="55.07 408.84 65.14 380.7 43.34 400.36 55.07 408.84"/><polygon class="cls-102" points="71.79 403.66 65.14 380.7 55.07 408.84 71.79 403.66"/><polygon class="cls-103" points="90.32 386.36 71.79 403.66 83.69 385.37 90.32 386.36"/><polygon class="cls-104" points="55.07 408.84 68.59 416.86 71.79 403.66 55.07 408.84"/><polygon class="cls-105" points="65.14 432.12 49.34 437.26 63.56 444.13 65.14 432.12"/><polygon class="cls-106" points="55.07 408.84 65.14 432.12 49.34 437.26 55.07 408.84"/><polygon class="cls-107" points="68.59 416.86 65.14 432.12 55.07 408.84 68.59 416.86"/><polygon class="cls-108" points="77.06 442.98 63.56 444.13 65.14 432.12 77.06 442.98"/><polygon class="cls-109" points="96.93 433.89 77.06 442.98 68.59 416.86 96.93 433.89"/><polygon class="cls-110" points="65.14 432.12 68.59 416.86 77.06 442.98 65.14 432.12"/><polygon class="cls-111" points="82.76 411.16 68.59 416.86 96.93 433.89 82.76 411.16"/><polygon class="cls-112" points="90.32 386.36 82.76 411.16 71.79 403.66 90.32 386.36"/><polygon class="cls-113" points="68.59 416.86 71.79 403.66 82.76 411.16 68.59 416.86"/><polygon class="cls-114" points="118.27 398.89 82.76 411.16 90.32 386.36 118.27 398.89"/><polygon class="cls-115" points="96.93 433.89 118.27 398.89 82.76 411.16 96.93 433.89"/><polygon class="cls-116" points="77.06 442.98 80.01 451.13 63.56 444.13 77.06 442.98"/><polygon class="cls-117" points="93.82 449.76 80.01 451.13 99.32 453.96 93.82 449.76"/><polygon class="cls-118" points="92.45 461.13 99.32 453.96 80.01 451.13 92.45 461.13"/><polygon class="cls-119" points="107.23 461.13 99.32 453.96 92.45 461.13 107.23 461.13"/><polygon class="cls-120" points="77.06 442.98 93.82 449.76 80.01 451.13 77.06 442.98"/><polygon class="cls-121" points="96.93 433.89 93.82 449.76 99.32 453.96 96.93 433.89"/><polygon class="cls-122" points="106.61 446.08 96.93 433.89 99.32 453.96 106.61 446.08"/><polygon class="cls-123" points="107.23 461.13 106.61 446.08 99.32 453.96 107.23 461.13"/><polygon class="cls-124" points="120.36 470.19 106.61 446.08 107.23 461.13 120.36 470.19"/><polygon class="cls-125" points="119.23 494.98 115.12 482.29 124.68 482.29 119.23 494.98"/><polygon class="cls-126" points="120.36 470.19 115.12 482.29 124.68 482.29 120.36 470.19"/><polygon class="cls-127" points="105.79 502.9 119.23 494.98 115.12 482.29 105.79 502.9"/><polygon class="cls-128" points="219.47 273.87 225.89 260.63 197.1 273.87 219.47 273.87"/><polygon class="cls-129" points="232.02 261.31 225.89 260.63 219.47 273.87 232.02 261.31"/><polygon class="cls-130" points="246.83 239 232.02 261.31 225.89 260.63 246.83 239"/><polygon class="cls-131" points="249.8 243.26 246.83 239 232.02 261.31 249.8 243.26"/><polygon class="cls-132" points="268.99 229.45 249.8 243.26 246.83 239 268.99 229.45"/><polygon class="cls-133" points="252.96 198.28 268.99 229.45 246.83 239 252.96 198.28"/><polygon class="cls-134" points="298.02 201.07 268.99 229.45 252.96 198.28 298.02 201.07"/><polygon class="cls-135" points="304.99 226.98 268.99 229.45 298.02 201.07 304.99 226.98"/><polygon class="cls-136" points="346.93 236.36 304.99 226.98 298.02 201.07 346.93 236.36"/><polygon class="cls-137" points="365.86 214.45 346.93 236.36 298.02 201.07 365.86 214.45"/><polygon class="cls-138" points="382.49 207.52 365.86 214.45 298.02 201.07 382.49 207.52"/><polygon class="cls-139" points="386.74 233.18 365.86 214.45 346.93 236.36 386.74 233.18"/><polygon class="cls-140" points="382.49 207.52 386.74 233.18 442.86 233.18 382.49 207.52"/><path class="cls-141" d="M375.93,252.66c.3,0,10.81-19.48,10.81-19.48l-39.81,3.18Z"/><polygon class="cls-142" points="268.99 234.28 268.99 229.45 249.8 243.26 268.99 234.28"/><polygon class="cls-143" points="304.99 226.98 268.99 234.28 268.99 229.45 304.99 226.98"/><polygon class="cls-144" points="303.9 232.31 268.99 234.28 304.99 226.98 303.9 232.31"/><polygon class="cls-145" points="343.56 240.36 346.93 236.36 304.99 226.98 343.56 240.36"/><polygon class="cls-146" points="303.9 232.31 343.56 240.36 304.99 226.98 303.9 232.31"/><polygon class="cls-147" points="368.73 252.66 346.93 236.36 375.93 252.66 368.73 252.66"/><polygon class="cls-148" points="343.56 240.36 368.73 252.66 346.93 236.36 343.56 240.36"/><path class="cls-149" d="M390.61,265.88c0-.41-3.87-32.7-3.87-32.7l-10.81,19.48Z"/><polygon class="cls-150" points="386.08 268.35 390.61 265.88 375.93 252.66 386.08 268.35"/><polygon class="cls-151" points="368.73 252.66 386.08 268.35 375.93 252.66 368.73 252.66"/><polygon class="cls-152" points="392.76 279.47 386.08 268.35 390.61 265.88 392.76 279.47"/><polygon class="cls-153" points="397.63 277.53 390.61 265.88 392.76 279.47 397.63 277.53"/><polygon class="cls-154" points="399.71 293.83 392.76 279.47 397.63 277.53 399.71 293.83"/><polygon class="cls-155" points="404.51 292.92 397.63 277.53 399.71 293.83 404.51 292.92"/><polygon class="cls-156" points="399.03 320.18 399.71 293.83 402.71 322.73 399.03 320.18"/><polygon class="cls-157" points="404.51 292.92 402.71 322.73 399.71 293.83 404.51 292.92"/><path class="cls-158" d="M393.16,344.2c0-.26,5.87-24,5.87-24l-2.33,26.2Z"/><polygon class="cls-159" points="402.71 322.73 396.7 346.38 399.03 320.18 402.71 322.73"/><path class="cls-160" d="M380.92,366.67c.12-.37,12.24-22.47,12.24-22.47l3.54,2.18Z"/><polygon class="cls-161" points="384.06 372.28 380.92 366.67 396.7 346.38 384.06 372.28"/><polygon class="cls-162" points="357.94 391.48 380.92 366.67 384.06 372.28 357.94 391.48"/><polygon class="cls-163" points="359.6 394.66 357.94 391.48 384.06 372.28 359.6 394.66"/><polygon class="cls-164" points="337.91 402.76 357.94 391.48 359.6 394.66 337.91 402.76"/><polygon class="cls-165" points="338.4 406.84 337.91 402.76 359.6 394.66 338.4 406.84"/><polygon class="cls-166" points="322.24 407.86 337.91 402.76 338.4 406.84 322.24 407.86"/><polygon class="cls-167" points="322.24 411.64 322.24 407.86 338.4 406.84 322.24 411.64"/><polygon class="cls-168" points="290.23 411.64 322.24 411.64 306.24 413.75 290.23 411.64"/><polygon class="cls-169" points="322.24 407.86 290.23 411.64 322.24 411.64 322.24 407.86"/><polygon class="cls-170" points="290.23 407.86 290.23 411.64 322.24 407.86 290.23 407.86"/><polygon class="cls-171" points="258.63 400.01 290.23 411.64 262.18 395.79 258.63 400.01"/><polygon class="cls-172" points="290.23 407.86 262.18 395.79 290.23 411.64 290.23 407.86"/><polygon class="cls-173" points="234.38 373.4 258.63 400.01 239.07 373.4 234.38 373.4"/><polygon class="cls-174" points="262.18 395.79 239.07 373.4 258.63 400.01 262.18 395.79"/><polygon class="cls-175" points="218.85 337.12 234.38 373.4 224.4 337.12 218.85 337.12"/><polygon class="cls-176" points="239.07 373.4 234.38 373.4 224.4 337.12 239.07 373.4"/><polygon class="cls-177" points="215.71 292.45 218.85 337.12 220.46 292.45 215.71 292.45"/><polygon class="cls-178" points="224.4 337.12 220.46 292.45 218.85 337.12 224.4 337.12"/><polygon class="cls-179" points="215.71 292.45 219.47 273.87 225.75 275.84 215.71 292.45"/><polygon class="cls-180" points="220.46 292.45 225.75 275.84 215.71 292.45 220.46 292.45"/><polygon class="cls-181" points="232.02 261.31 225.75 275.84 219.47 273.87 232.02 261.31"/><polygon class="cls-182" points="390.61 265.88 442.86 233.18 386.74 233.18 390.61 265.88"/><polygon class="cls-183" points="436.52 251.15 442.86 233.18 390.61 265.88 436.52 251.15"/><polygon class="cls-184" points="488.91 252 436.52 251.15 442.86 233.18 488.91 252"/><polygon class="cls-185" points="531.66 249.21 442.86 233.18 516.8 231.31 531.66 249.21"/><polygon class="cls-186" points="488.91 252 531.66 249.21 442.86 233.18 488.91 252"/><polygon class="cls-187" points="397.63 277.53 414.38 274.55 390.61 265.88 397.63 277.53"/><polygon class="cls-188" points="436.52 251.15 414.38 274.55 390.61 265.88 436.52 251.15"/><polygon class="cls-189" points="437.3 267.11 414.38 274.55 436.52 251.15 437.3 267.11"/><path class="cls-190" d="M488.91,252,437.3,267.11s-1.25-16-.78-16Z"/><polygon class="cls-191" points="452.13 267.11 437.3 267.11 488.91 252 452.13 267.11"/><polygon class="cls-192" points="531.66 249.21 452.13 267.11 488.91 252 531.66 249.21"/><polygon class="cls-193" points="504.67 259.13 531.66 249.21 452.13 267.11 504.67 259.13"/><polygon class="cls-194" points="531.66 255.64 531.66 249.21 504.67 259.13 531.66 255.64"/><polygon class="cls-195" points="507.9 263.21 504.67 259.13 531.66 255.64 507.9 263.21"/><path class="cls-196" d="M552.78,254.17l-21.12-5,19.74-1.28C551.11,248,552.78,254.17,552.78,254.17Z"/><polygon class="cls-197" points="531.66 255.64 531.66 249.21 552.78 254.17 531.66 255.64"/><path class="cls-198" d="M582.11,259.32c-.56.13-30.71-11.39-30.71-11.39l1.38,6.24Z"/><polygon class="cls-199" points="601.93 275.65 582.11 259.32 548.23 319.5 601.93 275.65"/><polygon class="cls-200" points="610.36 293 601.93 275.65 548.23 319.5 610.36 293"/><polygon class="cls-201" points="611.88 303.25 610.36 293 618.02 300.06 611.88 303.25"/><polygon class="cls-202" points="548.23 319.5 611.88 303.25 610.36 293 548.23 319.5"/><path class="cls-203" d="M494,273.66c.2,0,13.93-10.45,13.93-10.45l-3.23-4.08Z"/><polygon class="cls-204" points="490.3 269.79 504.67 259.13 493.97 273.66 490.3 269.79"/><polygon class="cls-205" points="483.96 286.82 493.97 273.66 490.3 269.79 483.96 286.82"/><polygon class="cls-206" points="478.35 281.48 490.3 269.79 483.96 286.82 478.35 281.48"/><polygon class="cls-207" points="467.53 274.55 490.3 269.79 478.35 281.48 467.53 274.55"/><polygon class="cls-208" points="452.13 267.11 467.53 274.55 490.3 269.79 452.13 267.11"/><polygon class="cls-209" points="504.67 259.13 490.3 269.79 452.13 267.11 504.67 259.13"/><polygon class="cls-210" points="476.17 286.34 478.35 281.48 483.96 286.82 476.17 286.34"/><polygon class="cls-211" points="467.53 274.55 476.17 286.34 478.35 281.48 467.53 274.55"/><polygon class="cls-212" points="463.46 278.3 467.53 274.55 476.17 286.34 463.46 278.3"/><polygon class="cls-213" points="452.13 267.11 463.46 278.3 467.53 274.55 452.13 267.11"/><polygon class="cls-214" points="439.17 275.06 452.13 267.11 463.46 278.3 439.17 275.06"/><polygon class="cls-215" points="452.13 267.11 439.17 275.06 437.3 267.11 452.13 267.11"/><polygon class="cls-216" points="404.51 283.55 414.38 274.55 419.95 281.06 404.51 283.55"/><polygon class="cls-217" points="397.63 277.53 404.51 283.55 404.51 292.92 397.63 277.53"/><polygon class="cls-218" points="476.17 301.22 483.96 286.82 476.17 286.34 476.17 301.22"/><polygon class="cls-219" points="470.81 302.06 476.17 286.34 476.17 301.22 470.81 302.06"/><polygon class="cls-220" points="470.27 321.11 470.81 302.06 476.17 301.22 470.27 321.11"/><polygon class="cls-221" points="474.85 321.53 476.17 301.22 470.27 321.11 474.85 321.53"/><path class="cls-222" d="M478.64,356.84c0-.26-3.79-35.31-3.79-35.31l-4.58-.42Z"/><polygon class="cls-223" points="459.55 292.51 463.46 278.3 476.17 286.34 459.55 292.51"/><polygon class="cls-224" points="470.81 302.06 476.17 286.34 459.55 292.51 470.81 302.06"/><polygon class="cls-225" points="437.3 298.99 463.46 278.3 459.55 292.51 437.3 298.99"/><polygon class="cls-226" points="439.17 275.06 437.3 298.99 463.46 278.3 439.17 275.06"/><polygon class="cls-227" points="419.95 281.06 427.06 275.38 414.38 274.55 419.95 281.06"/><polygon class="cls-228" points="437.3 267.11 427.06 275.38 414.38 274.55 437.3 267.11"/><polygon class="cls-229" points="439.17 275.06 437.3 267.11 427.06 275.38 439.17 275.06"/><polygon class="cls-230" points="427.72 278.78 427.06 275.38 419.95 281.06 427.72 278.78"/><polygon class="cls-231" points="439.17 275.06 427.72 278.78 427.06 275.38 439.17 275.06"/><polygon class="cls-232" points="437.3 298.99 427.72 278.78 419.95 281.06 437.3 298.99"/><polygon class="cls-233" points="439.17 275.06 437.3 298.99 427.72 278.78 439.17 275.06"/><polygon class="cls-234" points="416.73 327.4 419.95 281.06 404.51 283.55 416.73 327.4"/><polygon class="cls-235" points="404.51 292.92 404.51 283.55 416.73 327.4 404.51 292.92"/><polygon class="cls-236" points="408.69 341.76 404.51 292.92 402.71 322.73 408.69 341.76"/><polygon class="cls-237" points="416.73 327.4 408.69 341.76 404.51 292.92 416.73 327.4"/><polygon class="cls-238" points="437.3 298.99 416.73 327.4 419.95 281.06 437.3 298.99"/><polygon class="cls-239" points="451.32 308.28 459.55 292.51 470.81 302.06 451.32 308.28"/><polygon class="cls-240" points="470.27 321.11 451.32 308.28 455.75 333.28 470.27 321.11"/><polygon class="cls-241" points="437.3 298.99 451.32 308.28 455.75 333.28 437.3 298.99"/><polygon class="cls-242" points="416.73 327.4 455.75 333.28 437.3 298.99 416.73 327.4"/><polygon class="cls-243" points="478.64 356.84 455.75 333.28 470.27 321.11 478.64 356.84"/><polygon class="cls-244" points="416.73 327.4 478.64 356.84 455.75 333.28 416.73 327.4"/><polygon class="cls-245" points="465.34 377.65 478.64 356.84 416.73 327.4 465.34 377.65"/><polygon class="cls-246" points="430.74 383.47 465.34 377.65 416.73 327.4 430.74 383.47"/><polygon class="cls-247" points="408.69 341.76 430.74 383.47 416.73 327.4 408.69 341.76"/><polygon class="cls-248" points="396.7 346.38 408.69 341.76 402.71 322.73 396.7 346.38"/><polygon class="cls-249" points="384.06 372.28 408.69 341.76 396.7 346.38 384.06 372.28"/><polygon class="cls-250" points="430.74 383.47 384.06 372.28 408.69 341.76 430.74 383.47"/><polygon class="cls-251" points="489.95 363.74 478.64 356.84 465.34 377.65 489.95 363.74"/><polygon class="cls-252" points="499.57 379.14 489.95 363.74 465.34 377.65 499.57 379.14"/><polygon class="cls-253" points="491.03 404.05 499.57 379.14 473.1 396.11 491.03 404.05"/><polygon class="cls-254" points="465.34 377.65 473.1 396.11 499.57 379.14 465.34 377.65"/><polygon class="cls-255" points="503.49 391.6 499.57 379.14 491.03 404.05 503.49 391.6"/><path class="cls-256" d="M507,406.92c0,.31-3.54-15.33-3.54-15.33L491,404.05Z"/><polygon class="cls-257" points="499.57 411.65 507.03 406.92 491.03 404.05 499.57 411.65"/><polygon class="cls-258" points="506.59 421.21 507.03 406.92 499.57 411.65 506.59 421.21"/><path class="cls-259" d="M502.31,424.94c0-.24-2.74-13.29-2.74-13.29l7,9.56Z"/><polygon class="cls-260" points="497.69 419.25 499.57 411.65 502.31 424.94 497.69 419.25"/><polygon class="cls-261" points="471.37 428.72 499.57 411.65 497.69 419.25 471.37 428.72"/><polygon class="cls-262" points="491.03 404.05 471.37 428.72 499.57 411.65 491.03 404.05"/><polygon class="cls-263" points="471.37 418.3 473.1 396.11 491.03 404.05 471.37 418.3"/><polygon class="cls-264" points="471.37 428.72 471.37 418.3 491.03 404.05 471.37 428.72"/><polygon class="cls-265" points="459.61 422.89 471.37 418.3 471.37 428.72 459.61 422.89"/><polygon class="cls-266" points="450.35 413.63 471.37 418.3 459.61 422.89 450.35 413.63"/><polygon class="cls-267" points="430.74 383.47 473.1 396.11 465.34 377.65 430.74 383.47"/><polygon class="cls-268" points="450.35 413.63 473.1 396.11 430.74 383.47 450.35 413.63"/><polygon class="cls-269" points="434.63 404.53 430.74 383.47 450.35 413.63 434.63 404.53"/><polygon class="cls-270" points="384.06 372.28 434.63 404.53 430.74 383.47 384.06 372.28"/><polygon class="cls-271" points="428.84 423.51 434.63 404.53 450.35 413.63 428.84 423.51"/><polygon class="cls-272" points="449.49 422.89 450.35 413.63 428.84 423.51 449.49 422.89"/><polygon class="cls-273" points="459.61 422.89 449.49 422.89 450.35 413.63 459.61 422.89"/><path class="cls-274" d="M411.34,405.31c.42-.15,23.29-.78,23.29-.78l-5.79,19Z"/><polygon class="cls-275" points="384.06 372.28 385.89 377.65 434.63 404.53 384.06 372.28"/><polygon class="cls-276" points="411.34 405.31 384.06 372.28 434.63 404.53 411.34 405.31"/><polygon class="cls-277" points="398.54 411.08 411.34 405.31 384.06 372.28 398.54 411.08"/><polygon class="cls-278" points="359.6 394.66 362.78 401.43 384.06 372.28 359.6 394.66"/><polygon class="cls-279" points="362.78 401.43 369.7 402.02 384.06 372.28 362.78 401.43"/><polygon class="cls-280" points="338.4 406.84 362.78 401.43 359.6 394.66 338.4 406.84"/><polygon class="cls-281" points="339.12 413 338.4 406.84 362.78 401.43 339.12 413"/><polygon class="cls-282" points="322.24 411.64 339.12 413 338.4 406.84 322.24 411.64"/><polygon class="cls-283" points="307.28 421.35 322.24 411.64 339.12 413 307.28 421.35"/><polygon class="cls-284" points="290.23 411.64 307.28 421.35 306.24 413.75 290.23 411.64"/><polygon class="cls-285" points="369.7 402.02 390.74 423.51 384.06 372.28 369.7 402.02"/><polygon class="cls-286" points="398.54 411.08 390.74 423.51 384.06 372.28 398.54 411.08"/><polygon class="cls-287" points="428.84 423.51 411.34 405.31 398.54 411.08 428.84 423.51"/><polygon class="cls-288" points="418.29 426.97 428.84 423.51 398.54 411.08 418.29 426.97"/><polygon class="cls-289" points="390.74 423.51 418.29 426.97 398.54 411.08 390.74 423.51"/><polygon class="cls-290" points="367.71 417.81 369.7 402.02 362.78 401.43 367.71 417.81"/><polygon class="cls-291" points="390.74 423.51 367.71 417.81 369.7 402.02 390.74 423.51"/><polygon class="cls-292" points="379.22 437.67 390.74 423.51 412.01 438.94 379.22 437.67"/><polygon class="cls-293" points="428.39 440.28 412.01 438.94 418.29 426.97 428.39 440.28"/><polygon class="cls-294" points="390.74 423.51 412.01 438.94 418.29 426.97 390.74 423.51"/><polygon class="cls-295" points="428.84 423.51 428.39 440.28 418.29 426.97 428.84 423.51"/><polygon class="cls-296" points="454.1 437.35 428.84 423.51 428.39 440.28 454.1 437.35"/><polygon class="cls-297" points="449.49 422.89 428.84 423.51 454.1 437.35 449.49 422.89"/><polygon class="cls-298" points="459.61 422.89 454.1 437.35 449.49 422.89 459.61 422.89"/><polygon class="cls-299" points="471.37 428.72 454.1 437.35 459.61 422.89 471.37 428.72"/><polygon class="cls-300" points="466.6 437.99 454.1 437.35 471.37 428.72 466.6 437.99"/><polygon class="cls-301" points="481.2 440.28 471.37 428.72 466.6 437.99 481.2 440.28"/><polygon class="cls-302" points="483.53 426.83 481.2 440.28 471.37 428.72 483.53 426.83"/><polygon class="cls-303" points="497.69 419.25 483.53 426.83 471.37 428.72 497.69 419.25"/><polygon class="cls-304" points="502.31 424.94 483.53 426.83 497.69 419.25 502.31 424.94"/><path class="cls-305" d="M481.2,440.28c.43-.08,21.11-15.34,21.11-15.34l-18.78,1.89Z"/><polygon class="cls-306" points="530.45 421.69 507.03 406.92 506.59 421.21 530.45 421.69"/><polygon class="cls-307" points="532.5 416.99 507.03 406.92 530.45 421.69 532.5 416.99"/><polygon class="cls-308" points="553.07 417.25 532.5 416.99 530.45 421.69 553.07 417.25"/><polygon class="cls-309" points="553.07 420.81 553.07 417.25 530.45 421.69 553.07 420.81"/><path class="cls-310" d="M583.51,401c.22,0-23.06,18.35-23.06,18.35l-.75-4.15Z"/><polygon class="cls-311" points="553.07 420.81 559.7 415.19 560.45 419.34 553.07 420.81"/><polygon class="cls-312" points="553.07 417.25 559.7 415.19 553.07 420.81 553.07 417.25"/><polygon class="cls-313" points="583.51 400.99 548.23 319.5 597.36 380.25 583.51 400.99"/><path class="cls-314" d="M606.07,353.11c0,.68-8.71,27.15-8.71,27.15L548.23,319.5Z"/><polygon class="cls-315" points="611.88 327.49 606.07 353.11 548.23 319.5 611.88 327.49"/><polygon class="cls-316" points="611.88 303.25 611.88 327.49 548.23 319.5 611.88 303.25"/><polygon class="cls-317" points="559.7 415.19 548.23 319.5 583.51 400.99 559.7 415.19"/><polygon class="cls-318" points="553.07 417.25 548.23 319.5 559.7 415.19 553.07 417.25"/><polygon class="cls-319" points="532.5 416.99 548.23 319.5 553.07 417.25 532.5 416.99"/><polygon class="cls-320" points="507.03 406.92 548.23 319.5 532.5 416.99 507.03 406.92"/><polygon class="cls-321" points="503.49 391.6 548.23 319.5 507.03 406.92 503.49 391.6"/><polygon class="cls-322" points="499.57 379.14 548.23 319.5 503.49 391.6 499.57 379.14"/><polygon class="cls-323" points="489.95 363.74 548.23 319.5 499.57 379.14 489.95 363.74"/><polygon class="cls-324" points="478.64 356.84 548.23 319.5 489.95 363.74 478.64 356.84"/><polygon class="cls-325" points="474.85 321.53 548.23 319.5 478.64 356.84 474.85 321.53"/><polygon class="cls-326" points="476.17 301.22 548.23 319.5 474.85 321.53 476.17 301.22"/><polygon class="cls-327" points="483.96 286.82 548.23 319.5 476.17 301.22 483.96 286.82"/><polygon class="cls-328" points="493.97 273.66 548.23 319.5 483.96 286.82 493.97 273.66"/><polygon class="cls-329" points="507.9 263.21 548.23 319.5 493.97 273.66 507.9 263.21"/><polygon class="cls-330" points="531.66 255.64 507.9 263.21 548.23 319.5 531.66 255.64"/><polygon class="cls-331" points="552.78 254.17 531.66 255.64 548.23 319.5 552.78 254.17"/><polygon class="cls-332" points="582.11 259.32 552.78 254.17 548.23 319.5 582.11 259.32"/><polygon class="cls-333" points="399.71 293.83 313.42 310.08 399.03 320.18 399.71 293.83"/><polygon class="cls-334" points="393.16 344.19 313.42 310.08 399.03 320.18 393.16 344.19"/><polygon class="cls-335" points="380.92 366.67 313.42 310.08 393.16 344.19 380.92 366.67"/><polygon class="cls-336" points="357.94 391.48 313.42 310.08 380.92 366.67 357.94 391.48"/><polygon class="cls-337" points="337.91 402.76 313.42 310.08 357.94 391.48 337.91 402.76"/><polygon class="cls-338" points="322.24 407.86 313.42 310.08 337.91 402.76 322.24 407.86"/><polygon class="cls-339" points="290.23 407.86 313.42 310.08 322.24 407.86 290.23 407.86"/><polygon class="cls-340" points="262.18 395.79 313.42 310.08 290.23 407.86 262.18 395.79"/><polygon class="cls-341" points="239.07 373.4 313.42 310.08 262.18 395.79 239.07 373.4"/><polygon class="cls-342" points="224.4 337.12 239.07 373.4 313.42 310.08 224.4 337.12"/><polygon class="cls-343" points="220.46 292.45 224.4 337.12 313.42 310.08 220.46 292.45"/><polygon class="cls-344" points="225.75 275.84 313.42 310.08 220.46 292.45 225.75 275.84"/><polygon class="cls-345" points="232.02 261.31 313.42 310.08 225.75 275.84 232.02 261.31"/><polygon class="cls-346" points="249.8 243.26 313.42 310.08 232.02 261.31 249.8 243.26"/><polygon class="cls-347" points="268.99 234.28 249.8 243.26 313.42 310.08 268.99 234.28"/><polygon class="cls-348" points="303.9 232.31 268.99 234.28 313.42 310.08 303.9 232.31"/><polygon class="cls-349" points="343.56 240.36 313.42 310.08 303.9 232.31 343.56 240.36"/><polygon class="cls-350" points="368.73 252.66 313.42 310.08 343.56 240.36 368.73 252.66"/><polygon class="cls-351" points="386.08 268.35 313.42 310.08 368.73 252.66 386.08 268.35"/><polygon class="cls-352" points="392.76 279.47 313.42 310.08 386.08 268.35 392.76 279.47"/><polygon class="cls-353" points="399.71 293.83 313.42 310.08 392.76 279.47 399.71 293.83"/><polygon class="cls-354" points="379.22 437.67 367.71 417.81 390.74 423.51 379.22 437.67"/><polygon class="cls-355" points="362.78 401.43 344.13 459.77 367.71 417.81 362.78 401.43"/><polygon class="cls-356" points="379.22 437.67 344.13 459.77 367.71 417.81 379.22 437.67"/><polygon class="cls-357" points="412.01 438.94 344.13 459.77 379.22 437.67 412.01 438.94"/><polygon class="cls-358" points="506.59 421.21 536.84 466.88 530.45 421.69 506.59 421.21"/><polygon class="cls-359" points="553.07 420.81 536.84 466.88 530.45 421.69 553.07 420.81"/><polygon class="cls-360" points="560.45 419.34 536.84 466.88 553.07 420.81 560.45 419.34"/><polygon class="cls-361" points="560.45 464.51 560.45 419.34 536.84 466.88 560.45 464.51"/><polygon class="cls-362" points="502.31 424.94 536.84 466.88 506.59 421.21 502.31 424.94"/><polygon class="cls-363" points="481.2 440.28 536.84 466.88 502.31 424.94 481.2 440.28"/><polygon class="cls-364" points="553.07 495.02 560.45 464.51 536.84 466.88 553.07 495.02"/><polygon class="cls-365" points="465.49 467.93 481.2 440.28 536.84 466.88 465.49 467.93"/><polygon class="cls-366" points="547.73 530.47 553.07 495.02 536.84 466.88 547.73 530.47"/><polygon class="cls-367" points="528.07 525.44 536.84 466.88 547.73 530.47 528.07 525.44"/><polygon class="cls-368" points="514.19 490.55 528.07 525.44 536.84 466.88 514.19 490.55"/><polygon class="cls-369" points="465.49 467.93 514.19 490.55 536.84 466.88 465.49 467.93"/><polygon class="cls-370" points="466.6 437.99 465.49 467.93 481.2 440.28 466.6 437.99"/><polygon class="cls-371" points="454.1 437.35 466.6 437.99 465.49 467.93 454.1 437.35"/><polygon class="cls-372" points="428.39 440.28 454.1 437.35 465.49 467.93 428.39 440.28"/><polygon class="cls-373" points="431.37 465.55 428.39 440.28 465.49 467.93 431.37 465.55"/><polygon class="cls-374" points="412.01 438.94 431.37 465.55 414.65 471.53 412.01 438.94"/><polygon class="cls-375" points="514.19 490.55 491.58 497.82 465.49 467.93 514.19 490.55"/><polygon class="cls-376" points="528.07 525.44 514.19 490.55 491.58 497.82 528.07 525.44"/><polygon class="cls-377" points="500.76 521.66 491.58 497.82 528.07 525.44 500.76 521.66"/><polygon class="cls-378" points="439 494.07 431.37 465.55 469.47 494.07 439 494.07"/><polygon class="cls-379" points="465.49 467.93 469.47 494.07 431.37 465.55 465.49 467.93"/><polygon class="cls-380" points="491.58 497.82 469.47 494.07 465.49 467.93 491.58 497.82"/><polygon class="cls-381" points="487.57 520 491.58 497.82 469.47 494.07 487.57 520"/><polygon class="cls-382" points="463.02 522.95 469.47 494.07 487.57 520 463.02 522.95"/><polygon class="cls-383" points="500.76 521.66 487.57 520 491.58 497.82 500.76 521.66"/><polygon class="cls-384" points="454.1 503.31 469.47 494.07 463.02 522.95 454.1 503.31"/><polygon class="cls-385" points="439 494.07 454.1 503.31 469.47 494.07 439 494.07"/><path class="cls-386" d="M438.16,523l15.94-19.64L439,494.08Z"/><polygon class="cls-387" points="463.02 522.95 438.16 522.95 454.1 503.31 463.02 522.95"/><polygon class="cls-388" points="414.28 497.82 438.16 522.95 439 494.07 414.28 497.82"/><polygon class="cls-389" points="431.37 465.55 414.28 497.82 439 494.07 431.37 465.55"/><polygon class="cls-390" points="414.65 471.53 414.28 497.82 431.37 465.55 414.65 471.53"/><polygon class="cls-391" points="361.68 490.63 414.28 497.82 414.65 471.53 361.68 490.63"/><polygon class="cls-392" points="412.01 438.94 361.68 490.63 344.13 459.77 412.01 438.94"/><polygon class="cls-393" points="335.52 512.56 361.68 490.63 414.28 497.82 335.52 512.56"/><polygon class="cls-394" points="347.86 524.49 335.52 512.56 414.28 497.82 347.86 524.49"/><path class="cls-395" d="M394.06,524.49c.48-.32,20.22-26.67,20.22-26.67l-66.42,26.67Z"/><polygon class="cls-396" points="438.16 522.95 394.06 524.49 414.28 497.82 438.16 522.95"/><polygon class="cls-397" points="397.45 535.27 394.06 524.49 347.86 524.49 397.45 535.27"/><polygon class="cls-398" points="438.16 522.95 397.45 535.27 394.06 524.49 438.16 522.95"/><polygon class="cls-399" points="428.79 539.95 438.16 522.95 397.45 535.27 428.79 539.95"/><polygon class="cls-400" points="463.02 522.95 428.79 539.95 438.16 522.95 463.02 522.95"/><polygon class="cls-401" points="487.06 536.26 487.57 520 463.02 522.95 487.06 536.26"/><polygon class="cls-402" points="500.76 521.66 487.06 536.26 487.57 520 500.76 521.66"/><polygon class="cls-403" points="507.82 528.63 500.76 521.66 487.06 536.26 507.82 528.63"/><polygon class="cls-404" points="547.73 530.47 507.82 528.63 528.07 525.44 547.73 530.47"/><polygon class="cls-405" points="500.76 521.66 507.82 528.63 528.07 525.44 500.76 521.66"/><polygon class="cls-406" points="487.06 536.26 428.79 539.95 463.02 522.95 487.06 536.26"/><polygon class="cls-407" points="506.43 539.95 507.82 528.63 487.06 536.26 506.43 539.95"/><polygon class="cls-408" points="547.73 530.47 506.43 539.95 507.82 528.63 547.73 530.47"/><polygon class="cls-409" points="495.87 552 506.43 539.95 487.06 536.26 495.87 552"/><polygon class="cls-410" points="547.73 530.47 495.87 552 506.43 539.95 547.73 530.47"/><polygon class="cls-411" points="434.3 557.54 487.06 536.26 428.79 539.95 434.3 557.54"/><polygon class="cls-412" points="495.87 552 434.3 557.54 487.06 536.26 495.87 552"/><polygon class="cls-413" points="410.37 550.36 434.3 557.54 397.45 535.27 410.37 550.36"/><polygon class="cls-414" points="428.79 539.95 434.3 557.54 397.45 535.27 428.79 539.95"/><polygon class="cls-415" points="410.37 550.36 347.86 524.49 397.45 535.27 410.37 550.36"/><polygon class="cls-416" points="401.14 573.68 410.37 550.36 434.3 557.54 401.14 573.68"/><polygon class="cls-417" points="347.86 524.49 401.14 573.68 410.37 550.36 347.86 524.49"/><polygon class="cls-418" points="437.5 573.68 434.3 557.54 401.14 573.68 437.5 573.68"/><polygon class="cls-419" points="495.87 552 437.5 573.68 433.7 557.36 495.87 552"/><polygon class="cls-420" points="500.76 572.1 547.73 530.47 495.87 552 500.76 572.1"/><polygon class="cls-421" points="437.5 573.68 500.76 572.1 495.87 552 437.5 573.68"/><polygon class="cls-422" points="197.1 273.87 215.71 292.45 219.47 273.87 197.1 273.87"/><polygon class="cls-423" points="128.61 296.65 94.78 300.43 97.45 306.88 128.61 296.65"/><polygon class="cls-424" points="197.1 273.87 94.78 300.43 128.61 296.65 197.1 273.87"/><polygon class="cls-425" points="195 266.3 197.1 273.87 94.78 300.43 195 266.3"/><polygon class="cls-426" points="128.61 296.65 215.71 292.45 134.29 393.06 128.61 296.65"/><polygon class="cls-427" points="175.58 476.24 215.71 292.45 134.29 393.06 175.58 476.24"/><polygon class="cls-428" points="218.85 337.12 215.71 292.45 175.58 476.24 218.85 337.12"/><polygon class="cls-429" points="234.38 373.4 218.85 337.12 175.58 476.24 234.38 373.4"/><polygon class="cls-430" points="119.23 494.98 153.67 546.17 124.68 482.29 119.23 494.98"/><polygon class="cls-431" points="175.58 476.24 153.67 546.17 134.29 393.06 175.58 476.24"/><polygon class="cls-432" points="234.38 373.4 262.18 535.27 175.58 476.24 234.38 373.4"/><polygon class="cls-433" points="258.63 400.01 262.18 535.27 234.38 373.4 258.63 400.01"/><polygon class="cls-434" points="290.23 494.07 258.63 400.01 262.18 535.27 290.23 494.07"/><polygon class="cls-435" points="290.23 411.64 290.23 494.07 258.63 400.01 290.23 411.64"/><polygon class="cls-436" points="307.28 421.35 290.23 494.07 290.23 411.64 307.28 421.35"/><polygon class="cls-437" points="339.12 413 319.93 471.53 307.28 421.35 339.12 413"/><polygon class="cls-438" points="290.23 494.07 319.93 471.53 307.28 421.35 290.23 494.07"/><polygon class="cls-439" points="344.13 459.77 339.12 413 362.78 401.43 344.13 459.77"/><polygon class="cls-440" points="319.93 471.53 344.13 459.77 339.12 413 319.93 471.53"/><polygon class="cls-441" points="335.52 512.56 344.13 459.77 319.93 471.53 335.52 512.56"/><polygon class="cls-442" points="290.23 494.07 335.52 512.56 319.93 471.53 290.23 494.07"/><path class="cls-443" d="M298.76,535.28l-8.53-41.2s45.45,17.63,45.29,18.48S298.76,535.28,298.76,535.28Z"/><polygon class="cls-208" points="347.86 524.49 298.76 535.27 335.52 512.56 347.86 524.49"/><polygon class="cls-444" points="401.14 573.68 298.76 535.27 347.86 524.49 401.14 573.68"/><polygon class="cls-445" points="262.18 535.27 298.76 535.27 290.23 494.07 262.18 535.27"/><polygon class="cls-446" points="105.79 502.9 109.47 522.38 119.23 494.98 105.79 502.9"/><polygon class="cls-447" points="153.67 546.17 109.47 522.38 119.23 494.98 153.67 546.17"/><polygon class="cls-448" points="175.58 476.24 209.47 607.46 153.67 546.17 175.58 476.24"/><path class="cls-449" d="M277.54,662.21c0-.93-15.36-126.93-15.36-126.93l-86.6-59Z"/><polygon class="cls-450" points="298.76 535.27 277.54 662.21 262.18 535.27 298.76 535.27"/><polygon class="cls-451" points="401.14 573.68 337.57 637.27 298.76 535.27 401.14 573.68"/><polygon class="cls-452" points="469.13 607.46 401.14 573.68 431.37 615.42 469.13 607.46"/><polygon class="cls-453" points="500.76 572.1 401.14 573.68 469.13 607.46 500.76 572.1"/><polygon class="cls-454" points="547.73 530.47 532.33 580.8 500.76 572.1 547.73 530.47"/><polygon class="cls-455" points="516.98 628.31 532.33 580.8 500.76 572.1 516.98 628.31"/><polygon class="cls-456" points="469.13 607.46 516.98 628.31 500.76 572.1 469.13 607.46"/><polygon class="cls-457" points="509 669.09 516.98 628.31 469.13 607.46 509 669.09"/><polygon class="cls-458" points="481.25 695.07 509 669.09 469.13 607.46 481.25 695.07"/><polygon class="cls-459" points="428.69 710.65 481.25 695.07 469.13 607.46 428.69 710.65"/><polygon class="cls-460" points="399.1 714.59 428.69 710.65 469.13 607.46 399.1 714.59"/><polygon class="cls-461" points="431.37 615.42 399.1 714.59 337.57 637.27 431.37 615.42"/><polygon class="cls-462" points="401.14 573.68 337.57 637.27 431.37 615.42 401.14 573.68"/><path class="cls-463" d="M321.26,687.16s15.31-51.14,16.31-49.89l61.53,77.32Z"/><polygon class="cls-464" points="298.76 535.27 321.26 687.16 337.57 637.27 298.76 535.27"/><polygon class="cls-465" points="277.54 662.21 321.26 687.16 298.76 535.27 277.54 662.21"/><polygon class="cls-466" points="209.47 607.46 277.54 662.21 175.58 476.24 209.47 607.46"/><polygon class="cls-467" points="109.47 522.38 119.23 586.27 153.67 546.17 109.47 522.38"/><polygon class="cls-468" points="209.47 607.46 119.23 586.27 153.67 546.17 209.47 607.46"/><polygon class="cls-469" points="129.09 615.42 119.23 586.27 209.47 607.46 129.09 615.42"/><polygon class="cls-470" points="136.45 659.64 129.09 615.42 209.47 607.46 136.45 659.64"/><polygon class="cls-39" points="112.97 685.15 129.09 615.42 136.45 659.64 112.97 685.15"/><polygon class="cls-471" points="151.84 770.18 112.97 685.15 136.45 659.64 151.84 770.18"/><polygon class="cls-472" points="88.61 726.81 151.84 770.18 112.97 685.15 88.61 726.81"/><polygon class="cls-473" points="65.43 750.65 69.07 746.67 151.84 770.18 65.43 750.65"/><polygon class="cls-474" points="88.61 726.81 69.07 746.67 151.84 770.18 88.61 726.81"/><polygon class="cls-475" points="45.88 748.5 69.07 746.67 65.43 750.65 45.88 748.5"/><polygon class="cls-476" points="4.41 780.97 45.88 748.5 65.43 750.65 4.41 780.97"/><path class="cls-477" d="M72.16,864.49c0-2.13-6.73-113.84-6.73-113.84L4.41,781Z"/><polygon class="cls-478" points="114.09 822.83 65.43 750.65 72.16 864.49 114.09 822.83"/><polygon class="cls-479" points="151.84 770.18 114.09 822.83 65.43 750.65 151.84 770.18"/><polygon class="cls-480" points="280.47 870.9 136.45 659.64 151.84 770.18 280.47 870.9"/><polygon class="cls-481" points="209.47 607.46 136.45 659.64 280.47 870.9 209.47 607.46"/><polygon class="cls-482" points="277.54 662.21 280.47 870.9 209.47 607.46 277.54 662.21"/><polygon class="cls-483" points="346.59 916.77 280.47 870.9 327.65 842.68 346.59 916.77"/><polygon class="cls-484" points="277.54 662.21 327.65 842.68 280.47 870.9 277.54 662.21"/><polygon class="cls-485" points="314.51 703.21 277.54 662.21 327.65 842.68 314.51 703.21"/><polygon class="cls-486" points="321.26 687.16 314.51 703.21 277.54 662.21 321.26 687.16"/><polygon class="cls-487" points="390.45 731.16 321.26 687.16 314.51 703.21 390.45 731.16"/><polygon class="cls-488" points="399.1 714.59 390.45 731.16 321.26 687.16 399.1 714.59"/><polygon class="cls-489" points="428.69 710.65 390.45 731.16 399.1 714.59 428.69 710.65"/><polygon class="cls-490" points="429.59 736.24 390.45 731.16 428.69 710.65 429.59 736.24"/><polygon class="cls-491" points="373.32 792.19 390.45 731.16 314.51 703.21 373.32 792.19"/><polygon class="cls-492" points="413.69 795.31 373.32 792.19 390.45 731.16 413.69 795.31"/><polygon class="cls-493" points="429.59 736.24 413.69 795.31 390.45 731.16 429.59 736.24"/><polygon class="cls-494" points="401.86 916.77 314.51 703.21 373.32 792.19 401.86 916.77"/><polygon class="cls-495" points="327.65 842.68 401.86 916.77 314.51 703.21 327.65 842.68"/><polygon class="cls-496" points="346.59 916.77 401.86 916.77 327.65 842.68 346.59 916.77"/><path class="cls-497" d="M373.33,792.19s28.36,100.54,28.52,100.75,11.84-97.63,11.84-97.63Z"/><polygon class="cls-498" points="401.86 916.77 401.86 892.95 373.32 792.19 401.86 916.77"/><polygon class="cls-499" points="408.82 901.05 401.86 892.95 401.86 916.77 408.82 901.05"/><polygon class="cls-500" points="435.12 932.84 408.82 901.05 424.82 934.16 435.12 932.84"/><polygon class="cls-501" points="401.86 916.77 424.82 934.16 408.82 901.05 401.86 916.77"/><polygon class="cls-502" points="191.67 884.13 151.84 770.18 280.47 870.9 191.67 884.13"/><polygon class="cls-503" points="114.09 822.83 191.67 884.13 151.84 770.18 114.09 822.83"/><polygon class="cls-504" points="166.61 936.17 191.67 884.13 114.09 822.83 166.61 936.17"/><polygon class="cls-505" points="72.16 864.49 166.61 936.17 114.09 822.83 72.16 864.49"/><polygon class="cls-506" points="191.67 884.13 307.73 956.14 280.47 870.9 191.67 884.13"/><polygon class="cls-507" points="166.61 936.17 307.73 956.14 191.67 884.13 166.61 936.17"/><polygon class="cls-508" points="314.51 923.85 346.59 916.77 280.47 870.9 314.51 923.85"/><polygon class="cls-509" points="307.73 956.14 314.51 923.85 280.47 870.9 307.73 956.14"/><polygon class="cls-510" points="346.59 916.77 307.73 956.14 314.51 923.85 346.59 916.77"/><polygon class="cls-511" points="387.59 994.12 346.59 916.77 307.73 956.14 387.59 994.12"/><polygon class="cls-512" points="401.86 916.77 387.59 994.12 346.59 916.77 401.86 916.77"/><polygon class="cls-513" points="424.82 934.16 387.59 994.12 401.86 916.77 424.82 934.16"/><path class="cls-514" d="M416.74,1008.79c-.39,0-29.15-14.67-29.15-14.67l44.17-1.53Z"/><polygon class="cls-515" points="437.81 957.03 424.82 934.16 387.59 994.12 437.81 957.03"/><polygon class="cls-516" points="431.76 992.59 437.81 957.03 387.59 994.12 431.76 992.59"/><polygon class="cls-517" points="435.12 932.84 437.81 957.03 424.82 934.16 435.12 932.84"/><polygon class="cls-518" points="446.77 958.87 435.12 932.84 437.81 957.03 446.77 958.87"/><polygon class="cls-519" points="445.19 994.83 446.77 958.87 437.81 957.03 445.19 994.83"/><polygon class="cls-520" points="431.76 992.59 437.81 957.03 445.19 994.83 431.76 992.59"/><polygon class="cls-521" points="438.47 1020.77 431.76 992.59 416.74 1008.79 438.47 1020.77"/><polygon class="cls-522" points="445.19 994.83 438.47 1020.77 431.76 992.59 445.19 994.83"/><polygon class="cls-523" points="322.24 411.64 307.28 421.35 306.24 413.75 322.24 411.64"/><polygon class="cls-524" points="404.51 283.55 414.38 274.55 397.63 277.53 404.51 283.55"/><polygon class="cls-525" points="431.37 615.42 399.1 714.59 469.13 607.46 431.37 615.42"/><polygon class="cls-526" points="335.52 512.56 344.13 459.77 361.68 490.63 335.52 512.56"/><polygon class="cls-527" points="412.01 438.94 414.65 471.53 361.68 490.63 412.01 438.94"/><polygon class="cls-528" points="431.37 465.55 428.39 440.28 412.01 438.94 431.37 465.55"/><polygon class="cls-529" points="450.35 413.63 473.1 396.11 471.37 418.3 450.35 413.63"/><polygon class="cls-530" points="470.27 321.11 470.81 302.06 451.32 308.28 470.27 321.11"/><polygon class="cls-531" points="437.3 298.99 459.55 292.51 451.32 308.28 437.3 298.99"/><polygon class="cls-532" points="73.56 461.13 63.56 444.13 49.34 452.06 73.56 461.13"/><polygon class="cls-533" points="77.06 442.98 93.82 449.76 96.93 433.89 77.06 442.98"/><polygon class="cls-534" points="106.61 446.08 118.27 398.89 96.93 433.89 106.61 446.08"/><polygon class="cls-535" points="120.36 470.19 106.61 446.08 118.27 398.89 120.36 470.19"/><polygon class="cls-536" points="71.79 403.66 65.14 380.7 83.69 385.37 71.79 403.66"/><polygon class="cls-537" points="71.01 364.12 83.69 385.37 91.39 369.87 71.01 364.12"/><polygon class="cls-538" points="30.74 397.76 41.62 326.31 16.03 317.75 30.74 397.76"/><polygon class="cls-539" points="49.28 374.2 58.12 346.3 41.62 326.31 49.28 374.2"/><polygon class="cls-540" points="63.71 320.06 61.22 312.15 82.01 301.62 63.71 320.06"/><polygon class="cls-541" points="92.44 311.1 91.39 369.87 63.71 320.06 92.44 311.1"/><polygon class="cls-542" points="128.61 296.65 134.29 393.06 97.45 306.88 128.61 296.65"/><polygon class="cls-543" points="94.78 300.43 129.34 286.8 195 266.3 94.78 300.43"/><polygon class="cls-544" points="215.71 292.45 197.1 273.87 128.61 296.65 215.71 292.45"/><polygon class="cls-545" points="46.45 251.71 149.54 143.77 125.13 244.75 46.45 251.71"/><polygon class="cls-546" points="197.83 261.78 215.55 227.78 125.13 244.75 197.83 261.78"/><polygon class="cls-547" points="252.96 198.28 225.89 260.63 215.55 227.78 252.96 198.28"/><polygon class="cls-548" points="47.09 209.56 156.03 93.37 149.54 143.77 47.09 209.56"/><polygon class="cls-549" points="166.6 181.46 265.47 123.96 252.96 198.28 166.6 181.46"/><polygon class="cls-550" points="240.37 49.28 313.08 36.56 265.47 123.96 240.37 49.28"/><polygon class="cls-551" points="344.21 105.61 298.02 201.07 265.47 123.96 344.21 105.61"/><polygon class="cls-552" points="397.43 39.81 344.21 105.61 313.08 36.56 397.43 39.81"/><polygon class="cls-553" points="442.1 56.77 421.51 99.8 397.43 39.81 442.1 56.77"/><polygon class="cls-554" points="365.86 214.45 386.74 233.18 382.49 207.52 365.86 214.45"/><polygon class="cls-555" points="385.19 149.26 453.56 211.61 382.49 207.52 385.19 149.26"/><polygon class="cls-556" points="442.86 233.18 453.56 211.61 521.98 214.79 442.86 233.18"/><polygon class="cls-557" points="516.8 231.31 533.59 211.62 521.98 214.79 516.8 231.31"/><polygon class="cls-558" points="521.98 209.32 530.04 191.14 503.57 183.77 521.98 209.32"/><polygon class="cls-559" points="488.91 208.42 503.57 183.77 453.56 211.61 488.91 208.42"/><polygon class="cls-560" points="515.99 148.12 503.57 183.77 465 156.01 515.99 148.12"/><polygon class="cls-561" points="421.51 99.8 465 156.01 385.19 149.26 421.51 99.8"/><polygon class="cls-562" points="382.49 207.52 442.86 233.18 453.56 211.61 382.49 207.52"/><polygon class="cls-563" points="118.27 398.89 124.68 482.29 120.36 470.19 118.27 398.89"/><polygon class="cls-564" points="153.67 546.17 124.68 482.29 118.27 398.89 153.67 546.17"/><polygon class="cls-565" points="134.29 393.06 118.27 398.89 153.67 546.17 134.29 393.06"/></svg>