<svg id="Layer_1" data-name="Layer 1" xmlns="http://www.w3.org/2000/svg" viewBox="0 0 512 512"><defs><style>.cls-1,.cls-2{fill:#ccc;}.cls-2{fill-rule:evenodd;}</style></defs><title>icon_github</title><path class="cls-1" d="M502,10V502H10V10H502M512,0H0V512H512V0Z"/><path class="cls-2" d="M256.08,84.43a175.93,175.93,0,0,0-55.6,342.84c8.8,1.61,12-3.82,12-8.48,0-4.18-.15-15.24-.24-29.92C163.32,399.5,153,365.29,153,365.29c-8-20.33-19.54-25.74-19.54-25.74-16-10.91,1.21-10.69,1.21-10.69,17.66,1.25,27,18.13,27,18.13,15.69,26.88,41.17,19.12,51.19,14.62,1.6-11.37,6.15-19.12,11.17-23.52-39.06-4.44-80.13-19.53-80.13-86.94,0-19.21,6.86-34.91,18.11-47.21-1.81-4.45-7.85-22.33,1.72-46.55,0,0,14.77-4.73,48.38,18a166.77,166.77,0,0,1,88.08,0c33.58-22.76,48.33-18,48.33-18,9.59,24.22,3.55,42.1,1.75,46.55,11.27,12.3,18.08,28,18.08,47.21,0,67.58-41.13,82.45-80.32,86.8,6.32,5.43,11.94,16.17,11.94,32.58,0,23.52-.21,42.49-.21,48.26,0,4.7,3.16,10.17,12.09,8.45A175.94,175.94,0,0,0,256.08,84.43Z"/></svg>