<svg id="Layer_1" data-name="Layer 1" xmlns="http://www.w3.org/2000/svg" viewBox="0 0 512 512"><defs><style>.cls-1{fill:#ccc;}</style></defs><title>icon_instagram</title><path class="cls-1" d="M502,10V502H10V10H502M512,0H0V512H512V0Z"/><path class="cls-1" d="M368.16,84.64H143.84c-35.11,0-63.84,28-63.84,62.16V365.2c0,34.19,28.73,62.16,63.84,62.16H368.16c35.12,0,63.84-28,63.84-62.16V146.8C432,112.61,403.28,84.64,368.16,84.64Zm-41.42,48.15c0-7.77,6.22-13.62,14.42-13.63h42c7.25,0,12.95,4.58,14.19,11.34a12.2,12.2,0,0,1,.16,2.17q0,20.1,0,40.11c0,6.76-4.76,12.15-11.75,13.36a15.35,15.35,0,0,1-2.71.16c-7,0-14,0-21,0s-14-.06-21,0c-6.27.09-13.07-4.23-14.2-11.69a13.45,13.45,0,0,1-.11-1.9Q326.74,152.79,326.74,132.79ZM256,186.33c39.07,0,70.74,30.09,70.74,67.2S295.11,320.69,256,320.66s-70.63-30-70.71-67.15C185.2,217,216.34,186.39,256,186.33Zm141.47,42.2v119.4c0,8.81,0,17.62,0,26.45,0,6.51-4.57,11.85-11.27,13.17a19.73,19.73,0,0,1-4,.31q-61,.06-121.86,0-65.22,0-130.46,0a19,19,0,0,1-5.53-.68,13.49,13.49,0,0,1-9.78-11.65c-.07-.72-.08-1.45-.08-2.16V226.72h31.92c-7.23,27.89-3.74,54.48,11,79.54,10.47,17.84,25.31,31.64,44.15,41.5a113.81,113.81,0,0,0,59.94,13.1c35.51-2,64-16.73,85.63-43.5,20.66-27.51,26.69-57.71,18.53-90.6h31.83Z"/></svg>