<svg id="Layer_1" data-name="Layer 1" xmlns="http://www.w3.org/2000/svg" viewBox="0 0 512 512"><defs><style>.cls-1{fill:#001423;}.cls-2{fill:#fff;}</style></defs><title>icon_webpage</title><path class="cls-1" d="M502,10V502H10V10H502M512,0H0V512H512V0Z"/><rect class="cls-1" x="80" y="133.78" width="352" height="244.44"/><rect class="cls-2" x="96.3" y="150.07" width="319.41" height="211.85"/><rect class="cls-1" x="112.59" y="166.37" width="213.48" height="16.3"/><rect class="cls-1" x="334.22" y="166.37" width="16.3" height="16.3"/><rect class="cls-1" x="358.67" y="166.37" width="16.3" height="16.3"/><rect class="cls-1" x="383.11" y="166.37" width="16.3" height="16.3"/><rect class="cls-1" x="112.59" y="198.96" width="286.81" height="146.67"/><path class="cls-2" d="M154.74,301.46l-13.92-58.33h12.05l8.8,40.07,10.66-40.07h14l10.23,40.74,8.95-40.74h11.86L203.2,301.46H190.71l-11.62-43.61-11.57,43.61Z"/><path class="cls-2" d="M231.65,301.46l-13.92-58.33h12.05l8.79,40.07,10.67-40.07h14l10.23,40.74,8.95-40.74h11.85l-14.16,58.33H267.62L256,257.85l-11.58,43.61Z"/><path class="cls-2" d="M308.56,301.46l-13.93-58.33h12.06l8.79,40.07,10.66-40.07h14l10.22,40.74,8.95-40.74h11.86L357,301.46h-12.5l-11.61-43.61-11.58,43.61Z"/></svg>