<svg xmlns="http://www.w3.org/2000/svg" viewBox="0 0 512 512"><defs><style>.cls-1{fill:#ccc;}</style></defs><title>icon_linkedin</title><g id="Layer_2" data-name="Layer 2"><g id="Layer_1-2" data-name="Layer 1"><path class="cls-1" d="M502,10V502H10V10H502M512,0H0V512H512V0Z"/><path class="cls-1" d="M157.48,417.63H88.84V198h68.64ZM121.41,170.56h-.49C96.1,170.56,80,153.76,80,132.5c0-21.7,16.56-38.13,41.9-38.13s40.9,16.4,41.38,38.08C163.28,153.73,147.21,170.56,121.41,170.56ZM432,417.63H354.21V304c0-29.76-12.18-50-39-50-20.47,0-31.8,13.69-37.15,26.92-2,4.69-1.67,11.31-1.67,17.89V417.63H199.37s1-201.31,0-219.63h77.06v34.51c4.57-15.11,29.17-36.57,68.51-36.57,48.72,0,87.06,31.6,87.06,99.58Z"/></g></g></svg>