<svg id="Layer_1" data-name="Layer 1" xmlns="http://www.w3.org/2000/svg" viewBox="0 0 512 512"><defs><style>.cls-1{fill:#001423;}.cls-2{fill:#fff;}</style></defs><title>webpageandgear</title><path class="cls-1" d="M502,10V502H10V10H502M512,0H0V512H512V0Z"/><path class="cls-1" d="M350.51,207.39c0-2.88-.14-5.72-.39-8.54L381,173.56a129.09,129.09,0,0,0-12.69-30.64l-39.72,4a96.92,96.92,0,0,0-12.07-12.07l4-39.72a129.09,129.09,0,0,0-30.64-12.69l-25.29,30.88c-2.82-.25-5.66-.39-8.54-.39s-5.72.14-8.54.39L222.17,82.39a129.09,129.09,0,0,0-30.64,12.69l3.95,39.72a96.24,96.24,0,0,0-12.07,12.07l-39.72-4A129.09,129.09,0,0,0,131,173.56l30.88,25.29c-.25,2.82-.39,5.66-.39,8.54s.14,5.72.39,8.53L131,241.22a129.09,129.09,0,0,0,12.69,30.64l39.72-4A96.32,96.32,0,0,0,195.48,280l-3.95,39.72a129.09,129.09,0,0,0,30.64,12.69l25.29-30.88c2.82.25,5.66.39,8.54.39s5.72-.14,8.54-.39l25.29,30.88a129.09,129.09,0,0,0,30.64-12.69l-4-39.72a96.32,96.32,0,0,0,12.07-12.08l39.72,4A129.09,129.09,0,0,0,381,241.22l-30.88-25.29C350.37,213.11,350.51,210.27,350.51,207.39ZM256,254.64a47.25,47.25,0,1,1,47.25-47.25A47.24,47.24,0,0,1,256,254.64Z"/><rect class="cls-1" x="80" y="185.17" width="352" height="244.44"/><rect class="cls-2" x="96.3" y="201.46" width="319.41" height="211.85"/><rect class="cls-1" x="112.59" y="217.76" width="213.48" height="16.3"/><rect class="cls-1" x="334.22" y="217.76" width="16.3" height="16.3"/><rect class="cls-1" x="358.67" y="217.76" width="16.3" height="16.3"/><rect class="cls-1" x="383.11" y="217.76" width="16.3" height="16.3"/><rect class="cls-1" x="112.59" y="250.35" width="286.81" height="146.67"/><path class="cls-2" d="M154.74,352.85l-13.92-58.33h12.05l8.8,40.07,10.66-40.07h14l10.23,40.74,8.95-40.74h11.86L203.2,352.85H190.71l-11.62-43.61-11.57,43.61Z"/><path class="cls-2" d="M231.65,352.85l-13.92-58.33h12.05l8.79,40.07,10.67-40.07h14l10.23,40.74,8.95-40.74h11.85l-14.16,58.33H267.62L256,309.24l-11.58,43.61Z"/><path class="cls-2" d="M308.56,352.85l-13.93-58.33h12.06l8.79,40.07,10.66-40.07h14l10.22,40.74,8.95-40.74h11.86L357,352.85h-12.5l-11.61-43.61-11.58,43.61Z"/></svg>