<svg xmlns="http://www.w3.org/2000/svg" viewBox="0 0 512 512"><defs><style>.cls-1{fill:#ccc;}</style></defs><title>icon_instagram</title><g id="Layer_2" data-name="Layer 2"><g id="Layer_1-2" data-name="Layer 1"><path class="cls-1" d="M502,10V502H10V10H502M512,0H0V512H512V0Z"/><path class="cls-1" d="M256,111.72c47,0,52.57.18,71.13,1,47.7,2.17,70,24.8,72.15,72.15.85,18.55,1,24.12,1,71.11s-.18,52.57-1,71.12c-2.19,47.3-24.41,70-72.15,72.15-18.56.85-24.11,1-71.13,1s-52.57-.18-71.12-1c-47.81-2.19-70-24.92-72.14-72.16-.85-18.55-1-24.11-1-71.12s.19-52.55,1-71.12c2.18-47.33,24.4-70,72.14-72.14C203.45,111.9,209,111.72,256,111.72ZM256,80c-47.8,0-53.78.21-72.56,1.06C119.53,84,84,119.45,81.07,183.43,80.21,202.22,80,208.2,80,256s.21,53.8,1.06,72.57C84,392.49,119.45,428,183.43,430.94c18.79.85,24.77,1.06,72.57,1.06s53.8-.21,72.57-1.06C392.43,428,428,392.55,430.93,328.57,431.79,309.8,432,303.8,432,256s-.21-53.78-1.06-72.56C428.07,119.59,392.56,84,328.59,81.07,309.8,80.21,303.8,80,256,80Zm0,85.62A90.39,90.39,0,1,0,346.38,256,90.39,90.39,0,0,0,256,165.62Zm0,149.05A58.67,58.67,0,1,1,314.67,256,58.67,58.67,0,0,1,256,314.67ZM350,140.94a21.12,21.12,0,1,0,21.11,21.12A21.13,21.13,0,0,0,350,140.94Z"/></g></g></svg>