<svg xmlns="http://www.w3.org/2000/svg" viewBox="0 0 8.12 7.5"><defs><style>.cls-1{fill:#ccc;}</style></defs><title>quotation-mark</title><g id="Layer_2" data-name="Layer 2"><g id="Layer_1-2" data-name="Layer 1"><g id="Layer_2-2" data-name="Layer 2"><g id="Layer_1-2-2" data-name="Layer 1-2"><path class="cls-1" d="M3,4.23V7.5H0V4.92a6.86,6.86,0,0,1,.5-3A4.22,4.22,0,0,1,2.59,0l.69,1.09A2.51,2.51,0,0,0,2,2.16a4.63,4.63,0,0,0-.45,2.07Zm4.84,0V7.5h-3V4.92a6.86,6.86,0,0,1,.5-3A4.22,4.22,0,0,1,7.43,0l.69,1.09A2.56,2.56,0,0,0,6.85,2.16,4.63,4.63,0,0,0,6.4,4.23Z"/></g></g></g></g></svg>