<svg xmlns="http://www.w3.org/2000/svg" viewBox="0 0 509.83 57.6"><title>yuri-games_title_black</title><g id="Layer_2" data-name="Layer 2"><g id="Layer_1-2" data-name="Layer 1"><path d="M52.85,30l-8.93,5.68V57.6H9V35.86L0,30.1V0H20.31V13.68H32.55V0h20.3Z"/><path d="M106.42,48.6c0,5.48-3.67,9-8.79,9H66c-5.69,0-8.78-3.45-8.78-9V0h20.3V12.24h8.64V0h20.31Z"/><path d="M165.17,57.6h-22.9V45.8h-8.64V57.6h-22.9V0h45.58c5.55,0,8.86,2.88,8.86,8.86V23.19c0,5.61-2.66,7.92-6.41,8.85v.15a7.61,7.61,0,0,1,6.41,7.56Zm-22.9-33.69V14.76h-8.64v9.15Z"/><path d="M204.91,57.6H169.13V0h35.78Z"/><path d="M284.69,57.6h-46.8c-5.62,0-8.86-4-8.86-8.85V8.86C229,3.38,232.77,0,237.89,0h38.74V17.86H264.46V39.75h7.48V24.55h12.75Z"/><path d="M342.43,57.6h-23v-7h-8.64v7H287.93V8.86c0-5,2.66-8.86,8.85-8.86h36.65c5.55,0,9,3.82,9,8.86ZM319.46,28V17.86h-8.64V28Z"/><path d="M410,57.6H386.85V47l-8.78,7.13L369.36,47V57.6h-23V0h22.75L378,11l9-11h23Z"/><path d="M459.5,57.6H414.28V0H459.5V17.86h-9.43v6.33h9.43v9.29h-9.43v6.27h9.43Z"/><path d="M509.83,17.86H499.46v6.41h10.3V48.75c0,5.25-3,8.85-8.86,8.85H463.1V39.75h10.37V33.19H463.1V8.86C463.1,2.66,466.41,0,472,0h37.88Z"/></g></g></svg>